<?xml version="1.0" standalone="no"?>
<!DOCTYPE svg PUBLIC "-//W3C//DTD SVG 20010904//EN"
 "http://www.w3.org/TR/2001/REC-SVG-20010904/DTD/svg10.dtd">
<svg version="1.0" xmlns="http://www.w3.org/2000/svg"
 width="1600.000000pt" height="1200.000000pt" viewBox="0 0 1600.000000 1200.000000"
 preserveAspectRatio="xMidYMid meet">
<metadata>
Created by potrace 1.15, written by Peter Selinger 2001-2017
</metadata>
<g transform="translate(0.000000,1200.000000) scale(0.100000,-0.100000)"
fill="#000000" stroke="none">
<path d="M7666 6572 c-9 -2 -16 -8 -16 -14 0 -5 7 -8 15 -4 12 4 14 0 11 -20
-3 -14 -10 -31 -15 -38 -6 -7 -8 -16 -4 -20 4 -4 -3 -9 -15 -13 -12 -3 -22
-10 -22 -15 0 -5 5 -6 11 -2 8 4 9 0 4 -15 -4 -12 -2 -21 4 -21 6 0 11 7 11
15 0 8 5 15 10 15 6 0 8 -11 4 -25 -4 -16 -2 -25 6 -25 6 0 9 4 6 9 -11 18 22
44 59 47 30 3 43 -2 62 -22 17 -18 21 -30 14 -38 -7 -8 -3 -12 15 -14 27 -2
31 10 9 28 -8 7 -15 17 -15 23 0 5 -8 16 -17 24 -10 7 -13 13 -8 12 22 -3 35
2 35 12 0 6 -8 8 -20 4 -14 -5 -33 7 -74 47 -30 29 -62 52 -70 50z"/>
<path d="M8333 6531 c-30 -22 -64 -160 -40 -162 7 -1 22 -3 35 -4 12 -1 22 2
22 8 0 6 3 8 6 5 12 -12 44 33 49 69 9 57 -37 109 -72 84z"/>
<path d="M6054 6243 c3 -6 2 -14 -3 -18 -6 -3 -8 -33 -6 -68 5 -76 7 -86 25
-117 8 -14 14 -27 14 -30 0 -3 15 -19 33 -37 18 -17 33 -29 33 -26 0 3 7 0 15
-7 8 -7 12 -16 9 -21 -3 -5 0 -9 6 -9 6 0 8 -4 5 -10 -3 -5 -2 -10 3 -10 5 0
12 -8 14 -18 5 -18 35 -38 128 -84 25 -13 48 -27 52 -33 4 -5 8 -6 8 -2 0 4
10 2 23 -5 12 -7 25 -13 30 -14 4 -1 8 -2 10 -4 1 -1 9 -3 17 -5 8 -1 40 -8
70 -14 94 -19 101 -20 115 -15 15 6 10 28 -14 60 -20 26 -47 18 -45 -14 1 -19
-3 -22 -30 -20 -17 1 -35 4 -41 7 -5 3 -14 6 -20 6 -30 2 -75 18 -75 27 0 6
-3 8 -6 5 -4 -3 -16 -1 -28 5 -11 7 -24 11 -28 10 -5 -1 -8 3 -8 9 0 5 -4 7
-10 4 -5 -3 -10 -1 -10 5 0 6 -4 8 -10 5 -5 -3 -10 -2 -10 4 0 6 -11 13 -25
17 -14 3 -25 10 -25 14 0 4 -9 10 -19 13 -24 6 -63 67 -56 86 3 8 0 18 -7 22
-10 7 -9 12 5 26 18 17 19 17 17 -2 -4 -36 0 -40 16 -17 12 18 13 26 4 37 -19
23 -39 18 -52 -12 -7 -16 -13 -30 -14 -32 -4 -6 -69 64 -66 72 1 4 -3 7 -9 7
-5 0 -8 4 -5 9 4 5 0 11 -6 13 -9 3 -13 32 -14 92 -1 48 -5 90 -9 94 -5 4 -5
2 -1 -5z"/>
<path d="M8389 6106 c-2 -3 -28 -6 -57 -7 -28 -2 -52 -7 -52 -11 0 -5 -4 -6
-10 -3 -5 3 -10 1 -10 -4 0 -6 -5 -11 -10 -11 -6 0 -21 -11 -33 -25 -14 -16
-36 -26 -61 -29 -21 -3 -41 -7 -44 -10 -3 -3 -11 -1 -17 4 -9 8 -14 6 -19 -5
-3 -9 -10 -13 -16 -10 -5 3 -10 1 -10 -4 0 -6 5 -11 11 -11 8 0 8 -5 -1 -15
-7 -8 -9 -15 -5 -15 3 0 -7 -26 -24 -57 -17 -31 -29 -58 -27 -60 8 -8 43 -4
99 12 32 9 68 13 79 9 14 -4 18 -3 13 6 -7 12 -83 9 -120 -6 -17 -7 -18 -5 -8
8 7 8 10 18 6 21 -3 4 -1 7 5 7 7 0 11 6 10 13 -2 7 7 11 25 10 15 -1 25 2 22
8 -4 5 -13 9 -21 9 -11 0 -13 6 -8 22 10 32 27 46 67 53 19 4 45 18 58 31 12
13 26 21 30 18 5 -3 9 -1 9 5 0 13 35 24 84 27 26 1 44 -4 57 -17 11 -11 19
-20 18 -21 0 -2 3 -11 6 -21 9 -22 -13 -77 -31 -77 -8 0 -14 -4 -14 -8 0 -5
-11 -14 -24 -20 -24 -11 -24 -10 -20 34 2 26 0 44 -6 44 -5 0 -10 -15 -10 -33
0 -18 -7 -42 -15 -53 -16 -22 -17 -16 -6 44 5 23 5 44 1 47 -4 3 -10 -18 -14
-45 -4 -28 -11 -50 -16 -50 -5 0 -9 -9 -9 -20 -1 -11 -1 -30 -2 -41 0 -12 5
-27 11 -33 8 -8 11 -4 9 14 -3 40 0 60 11 60 7 0 8 -13 4 -35 -5 -29 -3 -35
11 -35 14 0 16 6 12 30 -4 18 -2 30 4 30 6 0 7 5 4 10 -5 9 8 12 31 9 4 0 10
3 13 8 3 4 21 21 39 36 19 15 30 27 27 27 -4 0 -3 6 1 13 11 15 10 34 -3 67
-11 27 -47 63 -54 56z"/>
<path d="M8744 5943 c-32 -69 -35 -94 -12 -111 38 -28 110 32 112 93 1 38 -13
58 -51 69 -18 6 -25 -1 -49 -51z"/>
<path d="M9417 5704 c-16 -19 -35 -34 -43 -34 -8 0 -14 -4 -14 -9 0 -8 -20
-18 -50 -26 -3 -1 -18 -8 -35 -15 -38 -16 -205 -24 -205 -10 0 6 6 13 14 16
17 6 9 54 -11 61 -21 8 -51 -24 -48 -52 3 -24 -13 -45 -37 -49 -7 -1 -19 -5
-27 -10 -33 -21 -294 -14 -331 9 -5 3 -3 17 5 31 18 36 13 57 -17 61 -32 4
-52 -19 -46 -52 7 -32 -9 -44 -63 -51 -24 -2 -60 -7 -79 -10 -19 -3 -81 -8
-137 -11 l-102 -6 8 30 c7 24 5 32 -10 41 -10 7 -28 12 -40 12 -18 0 -20 -5
-16 -40 2 -22 0 -41 -4 -41 -20 -3 -25 -5 -36 -12 -32 -20 -229 -29 -318 -15
-22 4 -56 10 -75 12 -75 11 -91 18 -89 34 4 45 0 53 -22 41 -14 -7 -19 -17
-16 -31 5 -19 -12 -48 -30 -50 -4 0 -18 -4 -30 -9 -24 -9 -203 -6 -243 4 -14
4 -37 9 -52 13 -16 3 -28 9 -28 13 0 4 -10 7 -22 8 -11 1 -24 7 -28 13 -4 7
-10 11 -14 11 -22 -3 -26 1 -13 14 25 25 7 72 -26 70 -18 -1 -22 -8 -22 -36 0
-42 -3 -43 -130 -43 -94 0 -143 4 -160 13 -5 3 -12 6 -15 6 -16 1 -70 29 -70
36 0 5 -6 9 -13 9 -8 0 -22 9 -32 20 -10 11 -22 17 -27 14 -12 -8 21 -44 39
-44 7 0 16 -7 19 -15 4 -8 10 -13 14 -10 5 3 16 -3 26 -12 10 -10 19 -17 21
-15 2 2 29 -2 60 -8 53 -11 204 -14 266 -6 15 3 27 -1 27 -7 0 -5 3 -7 7 -4 3
4 17 0 30 -8 13 -9 23 -13 23 -10 0 3 10 0 23 -7 12 -7 25 -13 30 -14 4 -1 8
-2 10 -4 15 -12 180 -31 229 -26 55 5 116 22 132 37 12 11 50 12 60 2 6 -6 31
-12 66 -14 8 -1 38 -6 65 -10 91 -17 164 -19 233 -8 72 12 96 16 100 19 1 2 5
3 10 4 4 1 17 7 30 14 12 7 32 10 43 7 28 -9 141 -9 220 0 100 11 146 19 169
28 12 5 55 3 55 -3 0 -2 27 -7 80 -14 43 -6 197 -8 230 -2 11 2 31 8 45 13 14
6 28 9 33 6 4 -2 7 1 7 7 0 6 5 8 10 5 6 -3 10 -2 10 3 0 5 21 6 51 1 63 -10
138 -2 190 19 15 6 35 12 45 14 11 2 28 11 38 21 11 9 23 17 28 17 10 0 68 60
68 71 0 17 -15 7 -43 -27z"/>
</g>
</svg>
